<mxfile host="app.diagrams.net" agent="Mozilla/5.0 (Windows NT 10.0; Win64; x64) AppleWebKit/537.36 (KHTML, like Gecko) Chrome/131.0.0.0 Safari/537.36" version="24.8.6">
  <diagram name="Page-1" id="e7e014a7-5840-1c2e-5031-d8a46d1fe8dd">
    <mxGraphModel dx="1238" dy="1764" grid="1" gridSize="10" guides="1" tooltips="1" connect="1" arrows="1" fold="1" page="0" pageScale="1" pageWidth="1169" pageHeight="826" background="none" math="0" shadow="0">
      <root>
        <mxCell id="0" />
        <mxCell id="1" parent="0" />
        <mxCell id="AVHLMCsRwFBvno4Tyc7N-41" value="" style="ellipse;fillColor=strokeColor;html=1;" vertex="1" parent="1">
          <mxGeometry x="446" y="-450" width="30" height="30" as="geometry" />
        </mxCell>
        <mxCell id="AVHLMCsRwFBvno4Tyc7N-46" value="" style="edgeStyle=orthogonalEdgeStyle;rounded=0;orthogonalLoop=1;jettySize=auto;html=1;" edge="1" parent="1" source="AVHLMCsRwFBvno4Tyc7N-43" target="AVHLMCsRwFBvno4Tyc7N-45">
          <mxGeometry relative="1" as="geometry" />
        </mxCell>
        <mxCell id="AVHLMCsRwFBvno4Tyc7N-43" value="ورود بازیکن به سیستم" style="html=1;align=center;verticalAlign=top;rounded=1;absoluteArcSize=1;arcSize=10;dashed=0;whiteSpace=wrap;" vertex="1" parent="1">
          <mxGeometry x="390" y="-360" width="140" height="40" as="geometry" />
        </mxCell>
        <mxCell id="AVHLMCsRwFBvno4Tyc7N-44" style="edgeStyle=orthogonalEdgeStyle;rounded=0;orthogonalLoop=1;jettySize=auto;html=1;exitX=0.5;exitY=1;exitDx=0;exitDy=0;entryX=0.471;entryY=0.002;entryDx=0;entryDy=0;entryPerimeter=0;" edge="1" parent="1" source="AVHLMCsRwFBvno4Tyc7N-41">
          <mxGeometry relative="1" as="geometry">
            <mxPoint x="460.93999999999994" y="-359.99999999999994" as="targetPoint" />
          </mxGeometry>
        </mxCell>
        <mxCell id="AVHLMCsRwFBvno4Tyc7N-48" value="" style="edgeStyle=orthogonalEdgeStyle;rounded=0;orthogonalLoop=1;jettySize=auto;html=1;" edge="1" parent="1" source="AVHLMCsRwFBvno4Tyc7N-45" target="AVHLMCsRwFBvno4Tyc7N-47">
          <mxGeometry relative="1" as="geometry" />
        </mxCell>
        <mxCell id="AVHLMCsRwFBvno4Tyc7N-45" value="بررسی اتصال به اینترنت" style="html=1;align=center;verticalAlign=top;rounded=1;absoluteArcSize=1;arcSize=10;dashed=0;whiteSpace=wrap;" vertex="1" parent="1">
          <mxGeometry x="390" y="-270" width="140" height="40" as="geometry" />
        </mxCell>
        <mxCell id="AVHLMCsRwFBvno4Tyc7N-50" value="" style="edgeStyle=orthogonalEdgeStyle;rounded=0;orthogonalLoop=1;jettySize=auto;html=1;" edge="1" parent="1" source="AVHLMCsRwFBvno4Tyc7N-47" target="AVHLMCsRwFBvno4Tyc7N-49">
          <mxGeometry relative="1" as="geometry" />
        </mxCell>
        <mxCell id="AVHLMCsRwFBvno4Tyc7N-55" value="خیر" style="edgeLabel;html=1;align=center;verticalAlign=middle;resizable=0;points=[];" vertex="1" connectable="0" parent="AVHLMCsRwFBvno4Tyc7N-50">
          <mxGeometry x="-0.2646" relative="1" as="geometry">
            <mxPoint as="offset" />
          </mxGeometry>
        </mxCell>
        <mxCell id="AVHLMCsRwFBvno4Tyc7N-54" value="" style="edgeStyle=orthogonalEdgeStyle;rounded=0;orthogonalLoop=1;jettySize=auto;html=1;" edge="1" parent="1" source="AVHLMCsRwFBvno4Tyc7N-47" target="AVHLMCsRwFBvno4Tyc7N-53">
          <mxGeometry relative="1" as="geometry" />
        </mxCell>
        <mxCell id="AVHLMCsRwFBvno4Tyc7N-56" value="بله" style="edgeLabel;html=1;align=center;verticalAlign=middle;resizable=0;points=[];" vertex="1" connectable="0" parent="AVHLMCsRwFBvno4Tyc7N-54">
          <mxGeometry x="-0.0309" y="-2" relative="1" as="geometry">
            <mxPoint as="offset" />
          </mxGeometry>
        </mxCell>
        <mxCell id="AVHLMCsRwFBvno4Tyc7N-47" value="اتصال برقرار است؟" style="rhombus;" vertex="1" parent="1">
          <mxGeometry x="382.5" y="-180" width="155" height="50" as="geometry" />
        </mxCell>
        <mxCell id="AVHLMCsRwFBvno4Tyc7N-52" value="" style="edgeStyle=orthogonalEdgeStyle;rounded=0;orthogonalLoop=1;jettySize=auto;html=1;" edge="1" parent="1" source="AVHLMCsRwFBvno4Tyc7N-49" target="AVHLMCsRwFBvno4Tyc7N-51">
          <mxGeometry relative="1" as="geometry" />
        </mxCell>
        <mxCell id="AVHLMCsRwFBvno4Tyc7N-49" value="نمایش خطای اتصال به اینترنت" style="html=1;align=center;verticalAlign=top;rounded=1;absoluteArcSize=1;arcSize=10;dashed=0;whiteSpace=wrap;" vertex="1" parent="1">
          <mxGeometry x="620" y="-175" width="140" height="40" as="geometry" />
        </mxCell>
        <mxCell id="AVHLMCsRwFBvno4Tyc7N-51" value="" style="ellipse;html=1;shape=endState;fillColor=strokeColor;" vertex="1" parent="1">
          <mxGeometry x="675" y="-90" width="30" height="30" as="geometry" />
        </mxCell>
        <mxCell id="AVHLMCsRwFBvno4Tyc7N-60" value="" style="edgeStyle=orthogonalEdgeStyle;rounded=0;orthogonalLoop=1;jettySize=auto;html=1;" edge="1" parent="1" source="AVHLMCsRwFBvno4Tyc7N-53" target="AVHLMCsRwFBvno4Tyc7N-57">
          <mxGeometry relative="1" as="geometry" />
        </mxCell>
        <mxCell id="AVHLMCsRwFBvno4Tyc7N-53" value="خواندن آخرین وصعیت نیرو ها از دیتابیس" style="html=1;align=center;verticalAlign=top;rounded=1;absoluteArcSize=1;arcSize=10;dashed=0;whiteSpace=wrap;" vertex="1" parent="1">
          <mxGeometry x="110" y="-175" width="170" height="40" as="geometry" />
        </mxCell>
        <mxCell id="AVHLMCsRwFBvno4Tyc7N-65" value="" style="edgeStyle=orthogonalEdgeStyle;rounded=0;orthogonalLoop=1;jettySize=auto;html=1;" edge="1" parent="1" source="AVHLMCsRwFBvno4Tyc7N-57" target="AVHLMCsRwFBvno4Tyc7N-64">
          <mxGeometry relative="1" as="geometry" />
        </mxCell>
        <mxCell id="AVHLMCsRwFBvno4Tyc7N-57" value="نمایش منوی عملیات به بازیکن" style="html=1;align=center;verticalAlign=top;rounded=1;absoluteArcSize=1;arcSize=10;dashed=0;whiteSpace=wrap;" vertex="1" parent="1">
          <mxGeometry x="-90" y="-175" width="140" height="40" as="geometry" />
        </mxCell>
        <mxCell id="AVHLMCsRwFBvno4Tyc7N-68" style="edgeStyle=orthogonalEdgeStyle;rounded=0;orthogonalLoop=1;jettySize=auto;html=1;exitX=0;exitY=0.5;exitDx=0;exitDy=0;entryX=0.5;entryY=0;entryDx=0;entryDy=0;" edge="1" parent="1" source="AVHLMCsRwFBvno4Tyc7N-59" target="AVHLMCsRwFBvno4Tyc7N-62">
          <mxGeometry relative="1" as="geometry" />
        </mxCell>
        <mxCell id="AVHLMCsRwFBvno4Tyc7N-69" style="edgeStyle=orthogonalEdgeStyle;rounded=0;orthogonalLoop=1;jettySize=auto;html=1;exitX=0.5;exitY=1;exitDx=0;exitDy=0;entryX=0.5;entryY=0;entryDx=0;entryDy=0;" edge="1" parent="1" source="AVHLMCsRwFBvno4Tyc7N-59" target="AVHLMCsRwFBvno4Tyc7N-63">
          <mxGeometry relative="1" as="geometry" />
        </mxCell>
        <mxCell id="AVHLMCsRwFBvno4Tyc7N-70" style="edgeStyle=orthogonalEdgeStyle;rounded=0;orthogonalLoop=1;jettySize=auto;html=1;exitX=1;exitY=0.5;exitDx=0;exitDy=0;entryX=0.5;entryY=0;entryDx=0;entryDy=0;" edge="1" parent="1" source="AVHLMCsRwFBvno4Tyc7N-59" target="AVHLMCsRwFBvno4Tyc7N-67">
          <mxGeometry relative="1" as="geometry" />
        </mxCell>
        <mxCell id="AVHLMCsRwFBvno4Tyc7N-59" value="انتخاب کاربر" style="rhombus;" vertex="1" parent="1">
          <mxGeometry x="-10" y="-60" width="155" height="50" as="geometry" />
        </mxCell>
        <mxCell id="AVHLMCsRwFBvno4Tyc7N-72" value="" style="edgeStyle=orthogonalEdgeStyle;rounded=0;orthogonalLoop=1;jettySize=auto;html=1;" edge="1" parent="1" source="AVHLMCsRwFBvno4Tyc7N-62" target="AVHLMCsRwFBvno4Tyc7N-71">
          <mxGeometry relative="1" as="geometry" />
        </mxCell>
        <mxCell id="AVHLMCsRwFBvno4Tyc7N-62" value="نمایش لیست نیرو های قابل ساخت" style="html=1;align=center;verticalAlign=top;rounded=1;absoluteArcSize=1;arcSize=10;dashed=0;whiteSpace=wrap;" vertex="1" parent="1">
          <mxGeometry x="-160" y="30" width="140" height="40" as="geometry" />
        </mxCell>
        <mxCell id="AVHLMCsRwFBvno4Tyc7N-74" value="" style="edgeStyle=orthogonalEdgeStyle;rounded=0;orthogonalLoop=1;jettySize=auto;html=1;" edge="1" parent="1" source="AVHLMCsRwFBvno4Tyc7N-63" target="AVHLMCsRwFBvno4Tyc7N-73">
          <mxGeometry relative="1" as="geometry" />
        </mxCell>
        <mxCell id="AVHLMCsRwFBvno4Tyc7N-63" value="نمایش لیست قهرمان های موجود" style="html=1;align=center;verticalAlign=top;rounded=1;absoluteArcSize=1;arcSize=10;dashed=0;whiteSpace=wrap;" vertex="1" parent="1">
          <mxGeometry x="-2.5" y="30" width="140" height="40" as="geometry" />
        </mxCell>
        <mxCell id="AVHLMCsRwFBvno4Tyc7N-66" style="edgeStyle=orthogonalEdgeStyle;rounded=0;orthogonalLoop=1;jettySize=auto;html=1;exitX=0.5;exitY=1;exitDx=0;exitDy=0;entryX=0.5;entryY=0;entryDx=0;entryDy=0;" edge="1" parent="1" source="AVHLMCsRwFBvno4Tyc7N-64" target="AVHLMCsRwFBvno4Tyc7N-59">
          <mxGeometry relative="1" as="geometry">
            <mxPoint x="40" y="-70" as="targetPoint" />
          </mxGeometry>
        </mxCell>
        <mxCell id="AVHLMCsRwFBvno4Tyc7N-64" value="بازیکن عملیات خود را انتخاب کن" style="html=1;align=center;verticalAlign=top;rounded=1;absoluteArcSize=1;arcSize=10;dashed=0;whiteSpace=wrap;" vertex="1" parent="1">
          <mxGeometry x="-260" y="-175" width="140" height="40" as="geometry" />
        </mxCell>
        <mxCell id="AVHLMCsRwFBvno4Tyc7N-67" value="انتخاب تقویت نیرو ها" style="html=1;align=center;verticalAlign=top;rounded=1;absoluteArcSize=1;arcSize=10;dashed=0;whiteSpace=wrap;" vertex="1" parent="1">
          <mxGeometry x="160" y="30" width="140" height="40" as="geometry" />
        </mxCell>
        <mxCell id="AVHLMCsRwFBvno4Tyc7N-71" value="بازیکن نیرو های قابل ساخت را انتخاب میکند" style="html=1;align=center;verticalAlign=top;rounded=1;absoluteArcSize=1;arcSize=10;dashed=0;whiteSpace=wrap;" vertex="1" parent="1">
          <mxGeometry x="-160" y="120" width="140" height="40" as="geometry" />
        </mxCell>
        <mxCell id="AVHLMCsRwFBvno4Tyc7N-73" value="بازیکن قهرمان مورد نظر را انتخاب می کند" style="html=1;align=center;verticalAlign=top;rounded=1;absoluteArcSize=1;arcSize=10;dashed=0;whiteSpace=wrap;" vertex="1" parent="1">
          <mxGeometry x="-2.5" y="120" width="140" height="40" as="geometry" />
        </mxCell>
      </root>
    </mxGraphModel>
  </diagram>
</mxfile>
